<svg width="29" height="29" viewBox="0 0 29 29" fill="none" xmlns="http://www.w3.org/2000/svg">
<path d="M14.25 0C19.9423 0 22.7889 1.70317e-05 24.8389 1.35645C25.7541 1.96207 26.5379 2.74593 27.1436 3.66113C28.5 5.71113 28.5 8.5577 28.5 14.25C28.5 19.9423 28.5 22.7889 27.1436 24.8389C26.5379 25.7541 25.7541 26.5379 24.8389 27.1436C22.7889 28.5 19.9423 28.5 14.25 28.5C8.5577 28.5 5.71113 28.5 3.66113 27.1436C2.74593 26.5379 1.96207 25.7541 1.35645 24.8389C1.70317e-05 22.7889 0 19.9423 0 14.25C0 8.5577 1.70281e-05 5.71113 1.35645 3.66113C1.96207 2.74593 2.74593 1.96207 3.66113 1.35645C5.71113 1.70281e-05 8.5577 0 14.25 0ZM14.25 6.87305C10.1757 6.87305 6.87226 10.1757 6.87207 14.25C6.87207 18.3244 10.1756 21.6279 14.25 21.6279C18.3243 21.6278 21.627 18.3243 21.627 14.25C21.6268 10.1758 18.3242 6.87318 14.25 6.87305ZM14.25 9.36914C16.9457 9.36928 19.1307 11.5543 19.1309 14.25C19.1309 16.9459 16.9458 19.1317 14.25 19.1318C11.5541 19.1318 9.36816 16.9459 9.36816 14.25C9.36836 11.5542 11.5542 9.36914 14.25 9.36914ZM21.9189 4.76855C20.9617 4.76855 20.1848 5.54475 20.1846 6.50195C20.1846 7.45932 20.9616 8.23535 21.9189 8.23535C22.8761 8.23512 23.6523 7.45918 23.6523 6.50195C23.6521 5.54489 22.876 4.76878 21.9189 4.76855Z" fill="#F28585"/>
</svg>
